<mxfile host="app.diagrams.net" modified="2020-10-31T08:24:08.099Z" agent="5.0 (Windows NT 10.0; Win64; x64) AppleWebKit/537.36 (KHTML, like Gecko) Chrome/86.0.4240.111 Safari/537.36" etag="5LjeTliluhZ7WcJKXufT" version="13.8.8" type="github">
  <diagram id="icHzCKYDgIh2rpwLXXQC" name="Page-1">
    <mxGraphModel dx="2106" dy="705" grid="1" gridSize="10" guides="1" tooltips="1" connect="1" arrows="1" fold="1" page="1" pageScale="1" pageWidth="827" pageHeight="1169" background="none" math="0" shadow="0">
      <root>
        <mxCell id="0" />
        <mxCell id="1" parent="0" />
        <mxCell id="IdkxWhRmUwhH4Njn8P9K-32" value="&lt;font face=&quot;Georgia&quot;&gt;openapi-generator-cli&lt;/font&gt;" style="rounded=0;whiteSpace=wrap;html=1;shadow=0;glass=0;sketch=1;fontFamily=Verdana;fontSize=25;" vertex="1" parent="1">
          <mxGeometry x="-640" y="100" width="400" height="60" as="geometry" />
        </mxCell>
        <mxCell id="IdkxWhRmUwhH4Njn8P9K-1" value="" style="rounded=1;whiteSpace=wrap;html=1;shadow=0;sketch=1;" vertex="1" parent="1">
          <mxGeometry x="-800" y="20" width="360" height="60" as="geometry" />
        </mxCell>
        <mxCell id="IdkxWhRmUwhH4Njn8P9K-3" value="" style="rounded=1;whiteSpace=wrap;html=1;glass=0;sketch=1;" vertex="1" parent="1">
          <mxGeometry x="-800" y="350" width="360" height="60" as="geometry" />
        </mxCell>
        <mxCell id="IdkxWhRmUwhH4Njn8P9K-7" value="frontend" style="text;html=1;strokeColor=none;fillColor=none;align=center;verticalAlign=middle;whiteSpace=wrap;rounded=0;fontSize=25;fontFamily=Georgia;labelBackgroundColor=none;labelBorderColor=none;" vertex="1" parent="1">
          <mxGeometry x="-750" y="40" width="40" height="20" as="geometry" />
        </mxCell>
        <mxCell id="IdkxWhRmUwhH4Njn8P9K-8" value="backend" style="text;html=1;strokeColor=none;fillColor=none;align=center;verticalAlign=middle;whiteSpace=wrap;rounded=0;fontSize=25;fontFamily=Georgia;" vertex="1" parent="1">
          <mxGeometry x="-750" y="370" width="40" height="20" as="geometry" />
        </mxCell>
        <mxCell id="IdkxWhRmUwhH4Njn8P9K-10" value="&lt;b style=&quot;font-size: 25px;&quot;&gt;Angular.js&lt;/b&gt;" style="text;html=1;strokeColor=none;fillColor=none;align=center;verticalAlign=middle;whiteSpace=wrap;rounded=0;fontSize=25;fontFamily=Georgia;" vertex="1" parent="1">
          <mxGeometry x="-540" y="40" width="40" height="20" as="geometry" />
        </mxCell>
        <mxCell id="IdkxWhRmUwhH4Njn8P9K-11" value="&lt;b style=&quot;font-size: 25px;&quot;&gt;Go&lt;/b&gt;" style="text;html=1;strokeColor=none;fillColor=none;align=center;verticalAlign=middle;whiteSpace=wrap;rounded=0;fontSize=25;fontFamily=Georgia;" vertex="1" parent="1">
          <mxGeometry x="-500" y="370" width="40" height="20" as="geometry" />
        </mxCell>
        <mxCell id="IdkxWhRmUwhH4Njn8P9K-18" value="" style="shape=mxgraph.bpmn.service_task;html=1;outlineConnect=0;sketch=1;" vertex="1" parent="1">
          <mxGeometry x="-630" y="110" width="39.25" height="40" as="geometry" />
        </mxCell>
        <mxCell id="IdkxWhRmUwhH4Njn8P9K-20" value="&lt;font style=&quot;font-size: 15px&quot; face=&quot;Georgia&quot;&gt;&lt;b&gt;OpenAPI&lt;/b&gt;&lt;/font&gt;" style="whiteSpace=wrap;html=1;shape=mxgraph.basic.document;fontSize=25;fontFamily=Verdana;sketch=1;" vertex="1" parent="1">
          <mxGeometry x="-800" y="160" width="110" height="110" as="geometry" />
        </mxCell>
        <mxCell id="IdkxWhRmUwhH4Njn8P9K-33" value="&lt;font face=&quot;Georgia&quot;&gt;openapi-generator-cli&lt;/font&gt;" style="rounded=0;whiteSpace=wrap;html=1;shadow=0;glass=0;sketch=1;fontFamily=Verdana;fontSize=25;" vertex="1" parent="1">
          <mxGeometry x="-640" y="270" width="400" height="60" as="geometry" />
        </mxCell>
        <mxCell id="IdkxWhRmUwhH4Njn8P9K-34" value="" style="shape=mxgraph.bpmn.service_task;html=1;outlineConnect=0;sketch=1;" vertex="1" parent="1">
          <mxGeometry x="-630" y="280" width="39.25" height="40" as="geometry" />
        </mxCell>
      </root>
    </mxGraphModel>
  </diagram>
</mxfile>
